<?xml version="1.0" ?><svg data-name="Design Convert" id="Design_Convert" viewBox="0 0 64 64" xmlns="http://www.w3.org/2000/svg"><defs><style>.cls-1{fill:#010101;}</style></defs><title/><path class="cls-1" d="M14,48a2,2,0,1,1,2-2A2,2,0,0,1,14,48Zm0-2Z"/><path class="cls-1" d="M14,53a7.11,7.11,0,0,1-1.51-.16,7,7,0,0,1-1.11-13.33l4.3-2.28A17.06,17.06,0,0,0,21.58,32a17.06,17.06,0,0,0-5.9-5.23l-4.3-2.28a7,7,0,1,1,7-11.93,7,7,0,0,1,.76,10.16l7.5,3.7,19.94-8.34.07,0a9.06,9.06,0,0,1,10.15,3.39,1,1,0,0,1-.39,1.46L19.17,41.28A7,7,0,0,1,14,53Zm0-40a5,5,0,0,0-1.82,9.65l.1.05L16.62,25a18.87,18.87,0,0,1,7,6.45,1,1,0,0,1,0,1.08,18.87,18.87,0,0,1-7,6.45L12.27,41.3l-.1.05a5,5,0,0,0,.73,9.53,5.07,5.07,0,0,0,4.25-1,5,5,0,0,0-.33-8,1,1,0,0,1-.44-.9,1,1,0,0,1,.56-.83L54.43,21.66a7.22,7.22,0,0,0-7.08-1.72L27,28.44a1,1,0,0,1-.83,0l-9.25-4.56a1,1,0,0,1-.56-.83,1,1,0,0,1,.44-.9A5,5,0,0,0,14,13Z"/><path class="cls-1" d="M49.4,46.38A8.69,8.69,0,0,1,46.68,46L26.25,37.4a1,1,0,0,1-.62-.89,1,1,0,0,1,.56-.93l9.09-4.48a1,1,0,0,1,.88,0l20.28,10a1,1,0,0,1,.39,1.46A9,9,0,0,1,49.4,46.38ZM29,36.41l18.35,7.67a7.25,7.25,0,0,0,7-1.74L35.72,33.12Z"/><path class="cls-1" d="M14,20a2,2,0,1,1,2-2A2,2,0,0,1,14,20Zm0-2Z"/></svg>